HIERARCHY
ROOT Hips
{
  OFFSET 0.382225 96.6805 0.598322
  CHANNELS 6 Xposition Yposition Zposition Zrotation Xrotation Yrotation
  JOINT Spine
  {
    OFFSET 10.8089 -0.851416 0
    CHANNELS 3 Zrotation Xrotation Yrotation
    JOINT Spine1
    {
      OFFSET 18.8753 3.80116 0
      CHANNELS 3 Zrotation Xrotation Yrotation
      JOINT Spine2
      {
        OFFSET 13.4073 0.420477 0
        CHANNELS 3 Zrotation Xrotation Yrotation
        JOINT LeftShoulder
        {
          OFFSET 11.8837 -2.73209 -3.78198
          CHANNELS 3 Zrotation Xrotation Yrotation
          JOINT LeftArm
          {
            OFFSET 15.7849 0 -2.35849e-005
            CHANNELS 3 Zrotation Xrotation Yrotation
            JOINT LeftForeArm
            {
              OFFSET 30.3399 0 0
              CHANNELS 3 Zrotation Xrotation Yrotation
              JOINT LeftHand
              {
                OFFSET 26.9751 0 2.45913e-005
                CHANNELS 3 Zrotation Xrotation Yrotation
                End Site
                {
                  OFFSET 8 0 0
                }
              }
            }
          }
        }
        JOINT RightShoulder
        {
          OFFSET 11.8838 -2.7321 3.782
          CHANNELS 3 Zrotation Xrotation Yrotation
          JOINT RightArm
          {
            OFFSET -15.7848 0 -1.07056e-005
            CHANNELS 3 Zrotation Xrotation Yrotation
            JOINT RightForeArm
            {
              OFFSET -30.34 1.02096e-005 -2.53607e-005
              CHANNELS 3 Zrotation Xrotation Yrotation
              JOINT RightHand
              {
                OFFSET -26.9752 2.07668e-005 0
                CHANNELS 3 Zrotation Xrotation Yrotation
                End Site
                {
                  OFFSET -8 0 0
                }
              }
            }
          }
        }
        JOINT Neck
        {
          OFFSET 16.5588 -0.355318 0
          CHANNELS 3 Zrotation Xrotation Yrotation
          JOINT Head
          {
            OFFSET 9.28361 0.364157 0
            CHANNELS 3 Zrotation Xrotation Yrotation
            End Site
            {
              OFFSET 0 0 0
            }
          }
        }
      }
    }
  }
  JOINT LeftUpLeg
  {
    OFFSET -1.44883 -0.531424 -9.00581
    CHANNELS 3 Zrotation Xrotation Yrotation
    JOINT LeftLeg
    {
      OFFSET -42.572 0.0788889 -0.011964
      CHANNELS 3 Zrotation Xrotation Yrotation
      JOINT LeftFoot
      {
        OFFSET -40.1967 0 0
        CHANNELS 3 Zrotation Xrotation Yrotation
				JOINT LeftToe
        {
          OFFSET -10.4538 -16.5779 0.0801563
          CHANNELS 3 Zrotation Xrotation Yrotation
          End Site
          {
            OFFSET -1.0 -1.0 0.0
          }
        }
      }
    }
  }
  JOINT RightUpLeg
  {
    OFFSET -1.44865 -0.531427 9.0058
    CHANNELS 3 Zrotation Xrotation Yrotation
    JOINT RightLeg
    {
      OFFSET 42.5723 -3.24776e-005 0
      CHANNELS 3 Zrotation Xrotation Yrotation
      JOINT RightFoot
      {
        OFFSET 40.1968 0 -1.14003e-005
        CHANNELS 3 Zrotation Xrotation Yrotation
				JOINT RightToe
        {
          OFFSET 10.4538 16.5778 -0.0801573
          CHANNELS 3 Zrotation Xrotation Yrotation
          End Site
          {
            OFFSET -1.0 -1.0 0.0
          }
        }
      }
    }
  }
}
MOTION
Frames:	15
Frame Time:	0.0333333
-41.108 85.156 146.782 -72.4533 53.3309 171.711 -26.7386 -8.59847 -9.33938 12.7509 0.062597 0.127225 2.7794 1.93418e-006 1.65929e-005 -0.323497 14.7349 69.735 -60.4965 -18.2737 25.3639 -93.3849 17.6816 -20.155 -129.046 -69.9662 -107.091 -177.633 7.04781 77.4678 -23.386 48.4693 63.5566 -113.376 -7.19469 -8.73405 115.026 -68.4015 128.648 -23.508 4.63459e-006 -5.90926e-006 34.0241 4.19055 4.77289 4.22344 27.0198 -3.88371 -54.7644 -3.03311 -2.78546 15.916 41.1271 -11.0829 -90 0 0 -124.478 9.6865 -7.57242 -47.4179 -3.33021 -3.65862 -2.74085 5.30645 1.44639 -90 0 0
-48.1449 85.0023 143.721 -70.4353 60.5893 167.46 -27.2524 -5.82149 -12.3322 12.4048 0.0786086 0.161003 2.7794 1.93418e-006 1.65929e-005 -0.0948929 14.915 68.7927 -44.4346 -16.5901 14.6823 -90.0097 15.9054 -20.2755 -147.209 -64.4824 -124.179 -178.541 8.87233 80.9782 -16.8207 39.6311 56.1748 -105.941 -7.7022 -8.28087 132.948 -55.8208 142.04 -23.508 4.63459e-006 -5.90926e-006 37.0877 12.3858 4.36015 5.48806 29.0208 0.645311 -55.8431 -3.32188 -2.86226 -19.3026 45.9357 -1.4774 -90 0 0 -127.294 2.95394 -5.5877 -50.5274 -2.95081 -3.99348 3.22525 8.97959 1.67532 -90 0 0
-54.2352 84.8419 141.073 -66.6396 66.7678 162.92 -30.2611 -2.3154 -14.9662 12.7696 0.0617272 0.125395 2.7794 1.93418e-006 1.65929e-005 0.888967 16.8063 66.5789 -33.9327 -13.5414 3.2535 -70.9756 5.76388 -18.9211 -133.655 -70.8989 -112.993 179.78 10.3493 87.0458 -12.26 26.0206 47.571 -92.56 -8.43853 -7.31073 140.235 -57.4982 149.278 -23.508 4.63459e-006 -5.90926e-006 43.1719 17.6052 -0.3511 11.2874 30.8982 -0.170409 -61.3357 -2.91715 -3.20201 -31.064 29.2123 0.0393692 -90 0 0 -129.493 -1.52791 -4.76469 -51.5073 -2.81577 -4.09476 6.36583 7.3164 2.11759 -90 0 0
-59.7853 84.4577 138.659 -58.1087 71.6256 153.062 -32.485 0.680485 -14.6181 12.5967 0.0697736 0.142278 2.7794 1.93418e-006 1.65929e-005 2.45497 18.1629 62.2641 -32.9471 -7.01889 -5.71441 -34.5028 -9.63339 -8.10391 -113.696 -73.1411 -97.974 178.993 8.92886 91.9034 -10.6649 12.5214 42.9613 -73.6669 -9.06235 -5.70861 152.511 -63.8609 161.668 -23.508 4.63459e-006 -5.90926e-006 50.6934 20.5149 -7.41813 20.7966 32.219 -3.83463 -70.3978 -2.00952 -3.6542 -25.7418 11.9005 2.20262 -90 0 0 -130.24 -4.04432 -6.6168 -52.3101 -2.69126 -4.17661 10.1749 5.93795 3.22914 -90 0 0
-64.6937 83.909 136.134 -49.416 73.6058 141.914 -34.3173 2.4078 -12.5954 13.1857 0.0421909 0.0849228 2.7794 1.93418e-006 1.65929e-005 0.168787 12.5265 63.6928 -25.982 2.06875 -14.1502 1.86867 -15.0674 8.55001 -90.4007 -66.8398 -88.9253 178.975 6.75414 95.4654 -10.1331 1.13453 39.8943 -54.7415 -9.13738 -3.98643 161.937 -62.7274 172.62 -23.508 4.63459e-006 -5.90926e-006 56.8686 20.8833 -12.546 32.8634 30.7512 -8.44799 -81.1939 -0.696488 -3.98995 -13.8099 5.09787 0.210693 -90 0 0 -130.8 -7.58347 -10.1949 -53.7235 -2.48934 -4.31756 12.9191 7.74955 4.54378 -90 0 0
-69.5919 83.2724 132.993 -46.6178 74.5332 137.431 -36.7381 2.5383 -13.5135 13.5428 0.0251838 0.0502898 2.7794 1.93418e-006 1.65929e-005 -1.38085 11.0458 71.2397 -20.8949 -25.1855 -14.3019 -0.538688 -15.0409 7.3864 -103.886 -53.9568 -102.865 179.179 6.17547 95.3741 -13.5153 -7.95574 38.4127 -49.2157 -9.05371 -3.48754 160.625 -71.2686 173.08 -23.508 4.63459e-006 -5.90926e-006 59.8917 22.626 -9.87445 44.7478 26.1974 -13.9702 -90.4776 0.692573 -4.09222 0.682156 13.5253 -7.22721 -90 0 0 -133.924 -11.3679 -13.6094 -54.7165 -2.35868 -4.41301 15.6266 9.01132 7.84906 -90 0 0
-74.534 82.6143 128.89 -47.2174 76.3814 135.304 -37.6078 2.26463 -11.8449 12.3618 0.0805947 0.1652 2.7794 1.93418e-006 1.65929e-005 -0.149667 19.0593 72.7254 -16.9015 -19.9854 -0.191981 -19.4929 -13.1797 -1.59163 -89.4461 -69.9162 -77.7527 179.265 5.64643 95.969 -19.5767 -11.0918 34.6953 -52.9263 -9.11496 -3.82237 158.98 -66.1161 172.717 -23.508 4.63459e-006 -5.90926e-006 60.4085 21.461 -9.02984 52.2184 21.9202 -18.0167 -89.0956 0.962151 -4.10322 8.94746 21.7233 -18.3412 -90 0 0 -139.782 -16.8348 -17.0973 -55.8144 -2.20256 -4.51668 18.4243 11.7401 10.0995 -90 0 0
-79.5332 82.1584 124.055 -63.2341 78.0735 147.844 -38.3043 3.45743 -9.82129 12.2211 0.0870344 0.178969 2.7794 1.93418e-006 1.65929e-005 -1.43292 18.3845 77.6646 -11.2239 3.78103 10.36 -38.1891 -8.48817 -9.56842 -137.892 -60.6079 -122.222 179.365 6.50552 93.579 -26.8154 -14.7815 33.7857 -61.3343 -9.17599 -4.58739 162.678 -71.0783 177.241 -23.508 4.63459e-006 -5.90926e-006 53.6015 17.4034 -4.00087 54.6647 16.9534 -20.1305 -80.2095 0.0562339 -4.02186 10.0828 19.4357 -18.3382 -90 0 0 -150.437 -20.2821 -22.4809 -56.6022 -2.05599 -4.59051 22.0427 16.0994 9.24203 -90 0 0
-84.6571 81.9857 118.781 -80.3696 76.5525 162.891 -36.8119 3.56665 -8.93583 13.2707 0.0381591 0.0766619 2.7794 1.93418e-006 1.65929e-005 -1.75964 17.8115 78.9412 -10.9045 7.81858 35.3287 -47.2871 -5.21952 -12.8866 -153.159 -60.7014 -137.482 179.981 4.36709 93.6225 -34.7361 -21.5132 31.5431 -71.7294 -9.09852 -5.53315 160.489 -70.9157 177.595 -23.508 4.63459e-006 -5.90926e-006 46.2381 14.2332 0.787323 56.6619 13.7198 -21.101 -65.5952 -1.5837 -3.49269 11.0485 15.8861 -15.9536 -90 0 0 -161.608 -18.857 -27.6868 -54.9786 -2.21581 -4.43639 24.4106 21.3368 6.15359 -90 0 0
-90.4152 81.5461 112.984 -88.6657 74.8516 170.364 -33.07 6.26497 -6.96863 14.6398 -0.0284012 -0.0554003 2.7794 1.93418e-006 1.65929e-005 -2.7377 18.0713 83.5549 -10.8711 12.0024 55.2419 -42.2907 -7.09069 -11.1203 -141.581 -65.0264 -128.217 -178.491 -1.11491 93.3651 -42.4633 -30.6868 27.3932 -82.1118 -8.84934 -6.45005 158.789 -71.8419 177.344 -23.508 4.63459e-006 -5.90926e-006 40.7227 6.37911 5.06691 57.6139 15.0534 -22.2205 -45.3785 -3.69628 -1.94126 9.56348 13.5556 -12.4462 -90 0 0 -170.971 -15.8466 -30.8534 -51.7902 -2.5654 -4.10422 25.2082 26.642 -0.679578 -90 0 0
-97.1373 80.6187 105.924 -97.093 73.6254 179.144 -29.2182 15.121 -3.65606 16.3879 -0.117954 -0.221686 2.7794 1.93418e-006 1.65929e-005 -3.24025 16.1939 86.5587 -3.8164 16.5644 69.7832 -27.6475 -11.4784 -5.22565 -131.648 -58.1137 -123.997 -177.43 -6.55147 87.8677 -47.2494 -44.3521 23.6808 -90.2419 -8.54467 -7.12688 172.071 -73.8728 -168.443 -23.508 4.63459e-006 -5.90926e-006 38.7604 -7.95546 9.37037 55.6448 17.0638 -22.0509 -30.157 -4.97939 -0.676576 10.4447 6.15842 -5.55847 -90 0 0 -179.518 -9.86828 -32.637 -46.499 -3.16925 -3.48117 22.9745 31.8565 -8.1342 -90 0 0
-104.563 79.3952 97.7424 -105.361 73.9778 -170.4 -25.0406 28.3495 -0.447552 16.3281 -0.114803 -0.216041 2.7794 1.93418e-006 1.65929e-005 -3.70594 15.7356 89.6026 7.52619 27.2353 70.7166 -19.9262 -13.1029 -1.78939 -121.672 -57.5687 -118.538 -177.9 -9.66208 75.131 -52.6308 -64.1542 19.1612 -93.6222 -8.39008 -7.39419 -160.998 -75.629 -140.289 -23.508 4.63459e-006 -5.90926e-006 43.6195 -24.328 15.1398 50.4331 15.4418 -21.1494 -28.7039 -4.96777 -0.609413 7.86591 9.27429 -9.00954 -90 0 0 177.292 0.720805 -33.792 -39.8385 -3.84811 -2.60618 14.9352 32.9987 -15.8014 -90 0 0
-111.708 77.8679 89.7416 -114.259 76.1409 -157.427 -19.8724 40.4085 1.32481 16.0679 -0.101183 -0.191455 2.7794 1.93418e-006 1.65929e-005 -4.51272 16.1104 94.31 15.7833 48.5356 62.4875 -28.8328 -11.1864 -5.7361 -130.042 -58.9931 -126.771 -178.412 -10.2993 58.3006 -45.6206 -83.4981 26.2545 -91.937 -8.46904 -7.26201 -135.201 -74.2077 -111.867 -23.508 4.63459e-006 -5.90926e-006 49.5997 -37.9379 19.9475 43.3067 8.49782 -24.487 -26.8284 -5.78303 -0.405241 -18.9506 7.24888 11.9025 -90 0 0 176.937 7.87118 -32.4448 -34.7659 -4.25056 -1.94762 3.98126 32.1636 -27.705 -90 0 0
-116.486 77.9274 84.2237 -112.543 71.1211 -158.819 -21.3443 40.0991 8.33938 14.9363 -0.0432347 -0.0837995 2.7794 1.93418e-006 1.65929e-005 -4.76631 17.6957 93.9858 26.112 52.1135 58.3746 -34.4043 -9.66286 -8.06342 -131.134 -63.1264 -127.671 -175.399 -4.28956 52.5493 -103.445 -84.4853 -33.9098 -85.8 -8.72277 -6.76245 -117.305 -66.4631 -95.1273 -23.508 4.63459e-006 -5.90926e-006 61.4773 -49.7159 22.974 46.7813 5.8674 -20.8754 -41.6317 -4.60326 -1.59345 -13.7154 4.67572 3.48151 -90 0 0 175.63 9.72272 -29.2225 -40.1469 -3.78534 -2.71948 1.98635 36.3508 -26.9334 -90 0 0
-120.385 79.872 79.3074 -115.257 64.1134 -155.741 -21.9546 34.3692 11.0873 13.0843 0.0469753 0.0947702 2.7794 1.93418e-006 1.65929e-005 -4.50656 20.4365 90.6296 21.964 48.4309 68.0679 -39.1761 -8.16364 -9.94969 -139.198 -58.3894 -134.572 -175.788 -3.48934 57.4265 -63.6409 -69.7553 -1.77682 -83.3185 -8.81015 -6.5532 -107.974 -74.0458 -85.1027 -23.508 4.63459e-006 -5.90926e-006 60.4456 -54.0595 20.1845 42.48 6.1649 -18.6978 -45.8167 -4.20075 -2.01526 -7.50501 0.439158 2.4038 -90 0 0 177.347 10.2443 -25.3826 -52.7394 -2.46247 -4.21337 -7.1763 34.441 -16.7696 -90 0 0
